<svg width="336" height="86" viewBox="0 0 336 86" fill="none" xmlns="http://www.w3.org/2000/svg">
<path d="M27.22 18.0793C30.4173 13.7405 36.9032 13.7405 40.1005 18.0793L47.2222 27.7436C47.6987 28.3903 48.2699 28.9615 48.9166 29.438L58.5809 36.5597C62.9198 39.7571 62.9198 46.2429 58.5809 49.4402L48.9166 56.562C48.2699 57.0385 47.6987 57.6097 47.2222 58.2563L40.1005 67.9207C36.9032 72.2595 30.4173 72.2595 27.22 67.9207L20.0983 58.2563C19.6218 57.6097 19.0506 57.0385 18.4039 56.562L8.73957 49.4402C4.40072 46.2429 4.40072 39.7571 8.73956 36.5598L18.4039 29.438C19.0506 28.9615 19.6218 28.3903 20.0983 27.7436L27.22 18.0793Z" stroke="#75EEFF" stroke-width="5"/>
<path d="M102.68 29.32V57H99.0405V36.36L89.8405 57H87.2805L78.0405 36.32V57H74.4005V29.32H78.3205L88.5605 52.2L98.8005 29.32H102.68ZM128.854 45.2C128.854 45.8933 128.814 46.6267 128.734 47.4H111.214C111.347 49.56 112.08 51.2533 113.414 52.48C114.774 53.68 116.414 54.28 118.334 54.28C119.907 54.28 121.214 53.92 122.254 53.2C123.32 52.4533 124.067 51.4667 124.494 50.24H128.414C127.827 52.3467 126.654 54.0667 124.894 55.4C123.134 56.7067 120.947 57.36 118.334 57.36C116.254 57.36 114.387 56.8933 112.734 55.96C111.107 55.0267 109.827 53.7067 108.894 52C107.96 50.2667 107.494 48.2667 107.494 46C107.494 43.7333 107.947 41.7467 108.854 40.04C109.76 38.3333 111.027 37.0267 112.654 36.12C114.307 35.1867 116.2 34.72 118.334 34.72C120.414 34.72 122.254 35.1733 123.854 36.08C125.454 36.9867 126.68 38.24 127.534 39.84C128.414 41.4133 128.854 43.2 128.854 45.2ZM125.094 44.44C125.094 43.0533 124.787 41.8667 124.174 40.88C123.56 39.8667 122.72 39.1067 121.654 38.6C120.614 38.0667 119.454 37.8 118.174 37.8C116.334 37.8 114.76 38.3867 113.454 39.56C112.174 40.7333 111.44 42.36 111.254 44.44H125.094ZM132.298 45.96C132.298 43.72 132.752 41.76 133.658 40.08C134.565 38.3733 135.805 37.0533 137.378 36.12C138.978 35.1867 140.752 34.72 142.698 34.72C144.618 34.72 146.285 35.1333 147.698 35.96C149.112 36.7867 150.165 37.8267 150.858 39.08V35.08H154.538V57H150.858V52.92C150.138 54.2 149.058 55.2667 147.618 56.12C146.205 56.9467 144.552 57.36 142.658 57.36C140.712 57.36 138.952 56.88 137.378 55.92C135.805 54.96 134.565 53.6133 133.658 51.88C132.752 50.1467 132.298 48.1733 132.298 45.96ZM150.858 46C150.858 44.3467 150.525 42.9067 149.858 41.68C149.192 40.4533 148.285 39.52 147.138 38.88C146.018 38.2133 144.778 37.88 143.418 37.88C142.058 37.88 140.818 38.2 139.698 38.84C138.578 39.48 137.685 40.4133 137.018 41.64C136.352 42.8667 136.018 44.3067 136.018 45.96C136.018 47.64 136.352 49.1067 137.018 50.36C137.685 51.5867 138.578 52.5333 139.698 53.2C140.818 53.84 142.058 54.16 143.418 54.16C144.778 54.16 146.018 53.84 147.138 53.2C148.285 52.5333 149.192 51.5867 149.858 50.36C150.525 49.1067 150.858 47.6533 150.858 46ZM164.33 27.4V57H160.69V27.4H164.33ZM198.813 29.32V57H195.173V36.36L185.973 57H183.413L174.173 36.32V57H170.533V29.32H174.453L184.693 52.2L194.933 29.32H198.813ZM203.626 45.96C203.626 43.72 204.08 41.76 204.986 40.08C205.893 38.3733 207.133 37.0533 208.706 36.12C210.306 35.1867 212.08 34.72 214.026 34.72C215.946 34.72 217.613 35.1333 219.026 35.96C220.44 36.7867 221.493 37.8267 222.186 39.08V35.08H225.866V57H222.186V52.92C221.466 54.2 220.386 55.2667 218.946 56.12C217.533 56.9467 215.88 57.36 213.986 57.36C212.04 57.36 210.28 56.88 208.706 55.92C207.133 54.96 205.893 53.6133 204.986 51.88C204.08 50.1467 203.626 48.1733 203.626 45.96ZM222.186 46C222.186 44.3467 221.853 42.9067 221.186 41.68C220.52 40.4533 219.613 39.52 218.466 38.88C217.346 38.2133 216.106 37.88 214.746 37.88C213.386 37.88 212.146 38.2 211.026 38.84C209.906 39.48 209.013 40.4133 208.346 41.64C207.68 42.8667 207.346 44.3067 207.346 45.96C207.346 47.64 207.68 49.1067 208.346 50.36C209.013 51.5867 209.906 52.5333 211.026 53.2C212.146 53.84 213.386 54.16 214.746 54.16C216.106 54.16 217.346 53.84 218.466 53.2C219.613 52.5333 220.52 51.5867 221.186 50.36C221.853 49.1067 222.186 47.6533 222.186 46ZM239.778 57.36C238.098 57.36 236.591 57.08 235.258 56.52C233.924 55.9333 232.871 55.1333 232.098 54.12C231.324 53.08 230.898 51.8933 230.818 50.56H234.578C234.684 51.6533 235.191 52.5467 236.098 53.24C237.031 53.9333 238.244 54.28 239.738 54.28C241.124 54.28 242.218 53.9733 243.018 53.36C243.818 52.7467 244.218 51.9733 244.218 51.04C244.218 50.08 243.791 49.3733 242.938 48.92C242.084 48.44 240.764 47.9733 238.978 47.52C237.351 47.0933 236.018 46.6667 234.978 46.24C233.964 45.7867 233.084 45.1333 232.338 44.28C231.618 43.4 231.258 42.2533 231.258 40.84C231.258 39.72 231.591 38.6933 232.258 37.76C232.924 36.8267 233.871 36.0933 235.098 35.56C236.324 35 237.724 34.72 239.298 34.72C241.724 34.72 243.684 35.3333 245.178 36.56C246.671 37.7867 247.471 39.4667 247.578 41.6H243.938C243.858 40.4533 243.391 39.5333 242.538 38.84C241.711 38.1467 240.591 37.8 239.178 37.8C237.871 37.8 236.831 38.08 236.058 38.64C235.284 39.2 234.898 39.9333 234.898 40.84C234.898 41.56 235.124 42.16 235.578 42.64C236.058 43.0933 236.644 43.4667 237.338 43.76C238.058 44.0267 239.044 44.3333 240.298 44.68C241.871 45.1067 243.151 45.5333 244.138 45.96C245.124 46.36 245.964 46.9733 246.658 47.8C247.378 48.6267 247.751 49.7067 247.778 51.04C247.778 52.24 247.444 53.32 246.778 54.28C246.111 55.24 245.164 56 243.938 56.56C242.738 57.0933 241.351 57.36 239.778 57.36ZM257.356 38.08V51C257.356 52.0667 257.583 52.8267 258.036 53.28C258.489 53.7067 259.276 53.92 260.396 53.92H263.076V57H259.796C257.769 57 256.249 56.5333 255.236 55.6C254.223 54.6667 253.716 53.1333 253.716 51V38.08H250.876V35.08H253.716V29.56H257.356V35.08H263.076V38.08H257.356ZM287.486 45.2C287.486 45.8933 287.446 46.6267 287.366 47.4H269.846C269.98 49.56 270.713 51.2533 272.046 52.48C273.406 53.68 275.046 54.28 276.966 54.28C278.54 54.28 279.846 53.92 280.886 53.2C281.953 52.4533 282.7 51.4667 283.126 50.24H287.046C286.46 52.3467 285.286 54.0667 283.526 55.4C281.766 56.7067 279.58 57.36 276.966 57.36C274.886 57.36 273.02 56.8933 271.366 55.96C269.74 55.0267 268.46 53.7067 267.526 52C266.593 50.2667 266.126 48.2667 266.126 46C266.126 43.7333 266.58 41.7467 267.486 40.04C268.393 38.3333 269.66 37.0267 271.286 36.12C272.94 35.1867 274.833 34.72 276.966 34.72C279.046 34.72 280.886 35.1733 282.486 36.08C284.086 36.9867 285.313 38.24 286.166 39.84C287.046 41.4133 287.486 43.2 287.486 45.2ZM283.726 44.44C283.726 43.0533 283.42 41.8667 282.806 40.88C282.193 39.8667 281.353 39.1067 280.286 38.6C279.246 38.0667 278.086 37.8 276.806 37.8C274.966 37.8 273.393 38.3867 272.086 39.56C270.806 40.7333 270.073 42.36 269.886 44.44H283.726ZM295.931 38.64C296.571 37.3867 297.478 36.4133 298.651 35.72C299.851 35.0267 301.304 34.68 303.011 34.68V38.44H302.051C297.971 38.44 295.931 40.6533 295.931 45.08V57H292.291V35.08H295.931V38.64Z" fill="#F1F1F1"/>
<path d="M312.56 57.24C311.867 57.24 311.28 57 310.8 56.52C310.32 56.04 310.08 55.4533 310.08 54.76C310.08 54.0667 310.32 53.48 310.8 53C311.28 52.52 311.867 52.28 312.56 52.28C313.227 52.28 313.787 52.52 314.24 53C314.72 53.48 314.96 54.0667 314.96 54.76C314.96 55.4533 314.72 56.04 314.24 56.52C313.787 57 313.227 57.24 312.56 57.24Z" fill="#75EEFF"/>
</svg>
