<svg width="545" height="352" viewBox="0 0 545 352" fill="none" xmlns="http://www.w3.org/2000/svg">
<rect width="545" height="352" rx="37" fill="#75EEFF"/>
<path d="M249.036 62.7344C249.036 58.4482 245.549 55 241.214 55C236.88 55 233.393 58.4482 233.393 62.7344V75.625H220.357C208.853 75.625 199.5 84.874 199.5 96.25V101.406V116.875V199.375C199.5 210.751 208.853 220 220.357 220H324.643C336.147 220 345.5 210.751 345.5 199.375V116.875V101.406V96.25C345.5 84.874 336.147 75.625 324.643 75.625H311.607V62.7344C311.607 58.4482 308.12 55 303.786 55C299.451 55 295.964 58.4482 295.964 62.7344V75.625H249.036V62.7344ZM215.143 116.875H241.214V134.922H215.143V116.875ZM215.143 150.391H241.214V171.016H215.143V150.391ZM256.857 150.391H288.143V171.016H256.857V150.391ZM303.786 150.391H329.857V171.016H303.786V150.391ZM329.857 134.922H303.786V116.875H329.857V134.922ZM329.857 186.484V199.375C329.857 202.211 327.511 204.531 324.643 204.531H303.786V186.484H329.857ZM288.143 186.484V204.531H256.857V186.484H288.143ZM241.214 186.484V204.531H220.357C217.489 204.531 215.143 202.211 215.143 199.375V186.484H241.214ZM288.143 134.922H256.857V116.875H288.143V134.922Z" fill="#000F43"/>
<path d="M70.636 263.304V297H62.428V276.792L54.892 297H48.268L40.684 276.744V297H32.476V263.304H42.172L51.628 286.632L60.988 263.304H70.636ZM74.9065 283.56C74.9065 280.808 75.4185 278.392 76.4425 276.312C77.4985 274.232 78.9225 272.632 80.7145 271.512C82.5065 270.392 84.5065 269.832 86.7145 269.832C88.6025 269.832 90.2505 270.216 91.6585 270.984C93.0985 271.752 94.2025 272.76 94.9705 274.008V270.216H103.179V297H94.9705V293.208C94.1705 294.456 93.0505 295.464 91.6105 296.232C90.2025 297 88.5545 297.384 86.6665 297.384C84.4905 297.384 82.5065 296.824 80.7145 295.704C78.9225 294.552 77.4985 292.936 76.4425 290.856C75.4185 288.744 74.9065 286.312 74.9065 283.56ZM94.9705 283.608C94.9705 281.56 94.3945 279.944 93.2425 278.76C92.1225 277.576 90.7465 276.984 89.1145 276.984C87.4825 276.984 86.0905 277.576 84.9385 278.76C83.8185 279.912 83.2585 281.512 83.2585 283.56C83.2585 285.608 83.8185 287.24 84.9385 288.456C86.0905 289.64 87.4825 290.232 89.1145 290.232C90.7465 290.232 92.1225 289.64 93.2425 288.456C94.3945 287.272 94.9705 285.656 94.9705 283.608ZM125.485 297L117.325 285.768V297H109.117V261.48H117.325V281.112L125.437 270.216H135.565L124.429 283.656L135.661 297H125.485ZM164.036 283.176C164.036 283.944 163.989 284.744 163.893 285.576H145.317C145.445 287.24 145.973 288.52 146.901 289.416C147.861 290.28 149.029 290.712 150.405 290.712C152.453 290.712 153.877 289.848 154.677 288.12H163.413C162.965 289.88 162.149 291.464 160.965 292.872C159.813 294.28 158.357 295.384 156.597 296.184C154.837 296.984 152.869 297.384 150.693 297.384C148.069 297.384 145.733 296.824 143.685 295.704C141.637 294.584 140.037 292.984 138.885 290.904C137.733 288.824 137.157 286.392 137.157 283.608C137.157 280.824 137.717 278.392 138.837 276.312C139.989 274.232 141.589 272.632 143.637 271.512C145.685 270.392 148.037 269.832 150.693 269.832C153.285 269.832 155.589 270.376 157.605 271.464C159.621 272.552 161.189 274.104 162.309 276.12C163.461 278.136 164.036 280.488 164.036 283.176ZM155.637 281.016C155.637 279.608 155.157 278.488 154.197 277.656C153.237 276.824 152.037 276.408 150.597 276.408C149.221 276.408 148.053 276.808 147.093 277.608C146.165 278.408 145.589 279.544 145.365 281.016H155.637ZM190.731 297.336C188.267 297.336 186.059 296.936 184.107 296.136C182.155 295.336 180.587 294.152 179.403 292.584C178.251 291.016 177.643 289.128 177.579 286.92H186.315C186.443 288.168 186.875 289.128 187.611 289.8C188.347 290.44 189.307 290.76 190.491 290.76C191.707 290.76 192.667 290.488 193.371 289.944C194.075 289.368 194.427 288.584 194.427 287.592C194.427 286.76 194.139 286.072 193.563 285.528C193.019 284.984 192.331 284.536 191.499 284.184C190.699 283.832 189.547 283.432 188.043 282.984C185.867 282.312 184.091 281.64 182.715 280.968C181.339 280.296 180.155 279.304 179.163 277.992C178.171 276.68 177.675 274.968 177.675 272.856C177.675 269.72 178.811 267.272 181.083 265.512C183.355 263.72 186.315 262.824 189.963 262.824C193.675 262.824 196.667 263.72 198.939 265.512C201.211 267.272 202.427 269.736 202.587 272.904H193.707C193.643 271.816 193.243 270.968 192.507 270.36C191.771 269.72 190.827 269.4 189.674 269.4C188.683 269.4 187.883 269.672 187.275 270.216C186.667 270.728 186.363 271.48 186.363 272.472C186.363 273.56 186.875 274.408 187.898 275.016C188.923 275.624 190.523 276.28 192.699 276.984C194.875 277.72 196.635 278.424 197.979 279.096C199.355 279.768 200.539 280.744 201.531 282.024C202.523 283.304 203.019 284.952 203.019 286.968C203.019 288.888 202.523 290.632 201.531 292.2C200.571 293.768 199.163 295.016 197.307 295.944C195.451 296.872 193.259 297.336 190.731 297.336ZM224.534 269.928C227.606 269.928 230.07 270.952 231.926 273C233.782 275.016 234.71 277.8 234.71 281.352V297H226.55V282.456C226.55 280.664 226.086 279.272 225.158 278.28C224.23 277.288 222.982 276.792 221.414 276.792C219.846 276.792 218.598 277.288 217.67 278.28C216.742 279.272 216.278 280.664 216.278 282.456V297H208.07V261.48H216.278V273.816C217.11 272.632 218.246 271.688 219.686 270.984C221.126 270.28 222.742 269.928 224.534 269.928ZM252.606 297.384C249.982 297.384 247.614 296.824 245.502 295.704C243.422 294.584 241.774 292.984 240.558 290.904C239.374 288.824 238.782 286.392 238.782 283.608C238.782 280.856 239.39 278.44 240.605 276.36C241.822 274.248 243.486 272.632 245.598 271.512C247.71 270.392 250.078 269.832 252.702 269.832C255.326 269.832 257.694 270.392 259.806 271.512C261.918 272.632 263.582 274.248 264.798 276.36C266.014 278.44 266.622 280.856 266.622 283.608C266.622 286.36 265.998 288.792 264.75 290.904C263.534 292.984 261.854 294.584 259.71 295.704C257.598 296.824 255.23 297.384 252.606 297.384ZM252.606 290.28C254.174 290.28 255.502 289.704 256.59 288.552C257.71 287.4 258.27 285.752 258.27 283.608C258.27 281.464 257.726 279.816 256.638 278.664C255.582 277.512 254.27 276.936 252.702 276.936C251.102 276.936 249.774 277.512 248.718 278.664C247.662 279.784 247.134 281.432 247.134 283.608C247.134 285.752 247.646 287.4 248.67 288.552C249.726 289.704 251.038 290.28 252.606 290.28ZM279.184 274.008C279.984 272.76 281.088 271.752 282.496 270.984C283.904 270.216 285.552 269.832 287.44 269.832C289.648 269.832 291.648 270.392 293.44 271.512C295.232 272.632 296.64 274.232 297.664 276.312C298.72 278.392 299.248 280.808 299.248 283.56C299.248 286.312 298.72 288.744 297.664 290.856C296.64 292.936 295.232 294.552 293.44 295.704C291.648 296.824 289.648 297.384 287.44 297.384C285.584 297.384 283.936 297 282.496 296.232C281.088 295.464 279.984 294.472 279.184 293.256V309.768H270.976V270.216H279.184V274.008ZM290.896 283.56C290.896 281.512 290.32 279.912 289.168 278.76C288.048 277.576 286.656 276.984 284.992 276.984C283.36 276.984 281.968 277.576 280.816 278.76C279.696 279.944 279.136 281.56 279.136 283.608C279.136 285.656 279.696 287.272 280.816 288.456C281.968 289.64 283.36 290.232 284.992 290.232C286.624 290.232 288.016 289.64 289.168 288.456C290.32 287.24 290.896 285.608 290.896 283.56ZM311.762 274.008C312.562 272.76 313.666 271.752 315.074 270.984C316.482 270.216 318.13 269.832 320.018 269.832C322.226 269.832 324.226 270.392 326.018 271.512C327.81 272.632 329.218 274.232 330.242 276.312C331.298 278.392 331.826 280.808 331.826 283.56C331.826 286.312 331.298 288.744 330.242 290.856C329.218 292.936 327.81 294.552 326.018 295.704C324.226 296.824 322.226 297.384 320.018 297.384C318.162 297.384 316.514 297 315.074 296.232C313.666 295.464 312.562 294.472 311.762 293.256V309.768H303.554V270.216H311.762V274.008ZM323.474 283.56C323.474 281.512 322.898 279.912 321.746 278.76C320.626 277.576 319.234 276.984 317.57 276.984C315.938 276.984 314.546 277.576 313.394 278.76C312.274 279.944 311.714 281.56 311.714 283.608C311.714 285.656 312.274 287.272 313.394 288.456C314.546 289.64 315.938 290.232 317.57 290.232C319.202 290.232 320.594 289.64 321.746 288.456C322.898 287.24 323.474 285.608 323.474 283.56ZM340.26 267.432C338.82 267.432 337.636 267.016 336.708 266.184C335.812 265.32 335.364 264.264 335.364 263.016C335.364 261.736 335.812 260.68 336.708 259.848C337.636 258.984 338.82 258.552 340.26 258.552C341.668 258.552 342.82 258.984 343.716 259.848C344.644 260.68 345.108 261.736 345.108 263.016C345.108 264.264 344.644 265.32 343.716 266.184C342.82 267.016 341.668 267.432 340.26 267.432ZM344.34 270.216V297H336.132V270.216H344.34ZM366.609 269.928C369.745 269.928 372.241 270.952 374.097 273C375.985 275.016 376.929 277.8 376.929 281.352V297H368.769V282.456C368.769 280.664 368.305 279.272 367.377 278.28C366.449 277.288 365.201 276.792 363.633 276.792C362.065 276.792 360.817 277.288 359.889 278.28C358.961 279.272 358.497 280.664 358.497 282.456V297H350.289V270.216H358.497V273.768C359.329 272.584 360.449 271.656 361.857 270.984C363.265 270.28 364.849 269.928 366.609 269.928ZM392.808 269.832C394.696 269.832 396.344 270.216 397.752 270.984C399.192 271.752 400.296 272.76 401.064 274.008V270.216H409.272V296.952C409.272 299.416 408.776 301.64 407.784 303.624C406.824 305.64 405.336 307.24 403.32 308.424C401.336 309.608 398.856 310.2 395.88 310.2C391.912 310.2 388.696 309.256 386.232 307.368C383.768 305.512 382.36 302.984 382.008 299.784H390.12C390.376 300.808 390.984 301.608 391.944 302.184C392.904 302.792 394.088 303.096 395.496 303.096C397.192 303.096 398.536 302.6 399.528 301.608C400.552 300.648 401.064 299.096 401.064 296.952V293.16C400.264 294.408 399.16 295.432 397.752 296.232C396.344 297 394.696 297.384 392.808 297.384C390.6 297.384 388.6 296.824 386.808 295.704C385.016 294.552 383.592 292.936 382.536 290.856C381.512 288.744 381 286.312 381 283.56C381 280.808 381.512 278.392 382.536 276.312C383.592 274.232 385.016 272.632 386.808 271.512C388.6 270.392 390.6 269.832 392.808 269.832ZM401.064 283.608C401.064 281.56 400.488 279.944 399.336 278.76C398.216 277.576 396.84 276.984 395.208 276.984C393.576 276.984 392.184 277.576 391.032 278.76C389.912 279.912 389.352 281.512 389.352 283.56C389.352 285.608 389.912 287.24 391.032 288.456C392.184 289.64 393.576 290.232 395.208 290.232C396.84 290.232 398.216 289.64 399.336 288.456C400.488 287.272 401.064 285.656 401.064 283.608ZM435.85 276.744V283.56H414.73V276.744H435.85ZM451.262 261.48V297H443.054V261.48H451.262ZM461.338 267.432C459.898 267.432 458.714 267.016 457.786 266.184C456.89 265.32 456.442 264.264 456.442 263.016C456.442 261.736 456.89 260.68 457.786 259.848C458.714 258.984 459.898 258.552 461.338 258.552C462.746 258.552 463.898 258.984 464.794 259.848C465.722 260.68 466.186 261.736 466.186 263.016C466.186 264.264 465.722 265.32 464.794 266.184C463.898 267.016 462.746 267.432 461.338 267.432ZM465.418 270.216V297H457.21V270.216H465.418ZM482.263 297.384C479.927 297.384 477.847 296.984 476.023 296.184C474.199 295.384 472.759 294.296 471.703 292.92C470.647 291.512 470.055 289.944 469.927 288.216H478.039C478.135 289.144 478.567 289.896 479.335 290.472C480.103 291.048 481.047 291.336 482.167 291.336C483.191 291.336 483.975 291.144 484.519 290.76C485.095 290.344 485.383 289.816 485.383 289.176C485.383 288.408 484.983 287.848 484.183 287.496C483.383 287.112 482.087 286.696 480.295 286.248C478.375 285.8 476.775 285.336 475.495 284.856C474.215 284.344 473.111 283.56 472.183 282.504C471.255 281.416 470.791 279.96 470.791 278.136C470.791 276.6 471.207 275.208 472.039 273.96C472.903 272.68 474.151 271.672 475.783 270.936C477.447 270.2 479.415 269.832 481.687 269.832C485.047 269.832 487.687 270.664 489.607 272.328C491.559 273.992 492.679 276.2 492.967 278.952H485.383C485.255 278.024 484.839 277.288 484.135 276.744C483.463 276.2 482.567 275.928 481.447 275.928C480.487 275.928 479.751 276.12 479.239 276.504C478.727 276.856 478.471 277.352 478.471 277.992C478.471 278.76 478.871 279.336 479.671 279.72C480.503 280.104 481.783 280.488 483.511 280.872C485.495 281.384 487.111 281.896 488.359 282.408C489.607 282.888 490.695 283.688 491.623 284.808C492.583 285.896 493.079 287.368 493.111 289.224C493.111 290.792 492.663 292.2 491.767 293.448C490.903 294.664 489.639 295.624 487.975 296.328C486.343 297.032 484.439 297.384 482.263 297.384ZM513.06 290.04V297H508.884C505.908 297 503.588 296.28 501.924 294.84C500.26 293.368 499.428 290.984 499.428 287.688V277.032H496.164V270.216H499.428V263.688H507.636V270.216H513.012V277.032H507.636V287.784C507.636 288.584 507.828 289.16 508.212 289.512C508.596 289.864 509.236 290.04 510.132 290.04H513.06Z" fill="#000F43"/>
<path d="M345.231 173.231C345.231 167.576 340.655 163 335 163C329.345 163 324.769 167.576 324.769 173.231V191.769H306.231C300.576 191.769 296 196.345 296 202C296 207.655 300.576 212.231 306.231 212.231H324.769V230.769C324.769 236.424 329.345 241 335 241C340.655 241 345.231 236.424 345.231 230.769V212.231H363.769C369.424 212.231 374 207.655 374 202C374 196.345 369.424 191.769 363.769 191.769H345.231V173.231Z" fill="#000D3A" stroke="#75EEFF" stroke-width="10"/>
</svg>
