<svg width="545" height="352" viewBox="0 0 545 352" fill="none" xmlns="http://www.w3.org/2000/svg">
<rect width="545" height="352" rx="37" fill="#75EEFF"/>
<path d="M176.5 112C176.5 98.7625 187.263 88 200.5 88C200.688 88 200.912 88 201.1 88C203.875 74.3125 215.987 64 230.5 64C236.125 64 241.375 65.5375 245.837 68.2C250.825 58.6 260.913 52 272.5 52C284.087 52 294.175 58.6 299.163 68.2C303.625 65.5375 308.875 64 314.5 64C329.013 64 341.125 74.3125 343.9 88C344.087 88 344.312 88 344.5 88C357.737 88 368.5 98.7625 368.5 112C368.5 116.387 367.337 120.475 365.275 124H179.725C177.663 120.475 176.5 116.387 176.5 112ZM176.5 146.275C176.5 140.612 181.112 136 186.775 136H358.225C363.888 136 368.5 140.612 368.5 146.275C368.5 172.712 351.85 195.288 328.487 204.062L327.812 209.5C327.062 215.5 321.963 220 315.888 220H229.075C223.037 220 217.9 215.5 217.15 209.5L216.475 204.1C193.15 195.288 176.5 172.712 176.5 146.275Z" fill="#000F43"/>
<path d="M180.452 291.048H167.876L165.86 297H157.268L169.46 263.304H178.964L191.156 297H182.468L180.452 291.048ZM178.34 284.712L174.164 272.376L170.036 284.712H178.34ZM193.235 283.56C193.235 280.808 193.747 278.392 194.771 276.312C195.827 274.232 197.251 272.632 199.043 271.512C200.835 270.392 202.835 269.832 205.043 269.832C206.803 269.832 208.403 270.2 209.843 270.936C211.315 271.672 212.467 272.664 213.299 273.912V261.48H221.507V297H213.299V293.16C212.531 294.44 211.427 295.464 209.987 296.232C208.579 297 206.931 297.384 205.043 297.384C202.835 297.384 200.835 296.824 199.043 295.704C197.251 294.552 195.827 292.936 194.771 290.856C193.747 288.744 193.235 286.312 193.235 283.56ZM213.299 283.608C213.299 281.56 212.723 279.944 211.571 278.76C210.451 277.576 209.075 276.984 207.443 276.984C205.811 276.984 204.419 277.576 203.267 278.76C202.147 279.912 201.587 281.512 201.587 283.56C201.587 285.608 202.147 287.24 203.267 288.456C204.419 289.64 205.811 290.232 207.443 290.232C209.075 290.232 210.451 289.64 211.571 288.456C212.723 287.272 213.299 285.656 213.299 283.608ZM225.813 283.56C225.813 280.808 226.325 278.392 227.349 276.312C228.405 274.232 229.829 272.632 231.621 271.512C233.413 270.392 235.413 269.832 237.621 269.832C239.381 269.832 240.981 270.2 242.421 270.936C243.893 271.672 245.045 272.664 245.877 273.912V261.48H254.085V297H245.877V293.16C245.109 294.44 244.005 295.464 242.565 296.232C241.157 297 239.509 297.384 237.621 297.384C235.413 297.384 233.413 296.824 231.621 295.704C229.829 294.552 228.405 292.936 227.349 290.856C226.325 288.744 225.813 286.312 225.813 283.56ZM245.877 283.608C245.877 281.56 245.301 279.944 244.149 278.76C243.029 277.576 241.653 276.984 240.021 276.984C238.389 276.984 236.997 277.576 235.845 278.76C234.725 279.912 234.165 281.512 234.165 283.56C234.165 285.608 234.725 287.24 235.845 288.456C236.997 289.64 238.389 290.232 240.021 290.232C241.653 290.232 243.029 289.64 244.149 288.456C245.301 287.272 245.877 285.656 245.877 283.608ZM308.355 263.304V297H300.147V276.792L292.611 297H285.987L278.403 276.744V297H270.195V263.304H279.891L289.347 286.632L298.707 263.304H308.355ZM339.505 283.176C339.505 283.944 339.457 284.744 339.361 285.576H320.785C320.913 287.24 321.441 288.52 322.369 289.416C323.329 290.28 324.497 290.712 325.873 290.712C327.921 290.712 329.345 289.848 330.145 288.12H338.881C338.433 289.88 337.617 291.464 336.433 292.872C335.281 294.28 333.825 295.384 332.065 296.184C330.305 296.984 328.337 297.384 326.161 297.384C323.537 297.384 321.201 296.824 319.153 295.704C317.105 294.584 315.505 292.984 314.353 290.904C313.201 288.824 312.625 286.392 312.625 283.608C312.625 280.824 313.185 278.392 314.305 276.312C315.457 274.232 317.057 272.632 319.105 271.512C321.153 270.392 323.505 269.832 326.161 269.832C328.753 269.832 331.057 270.376 333.073 271.464C335.089 272.552 336.657 274.104 337.777 276.12C338.929 278.136 339.505 280.488 339.505 283.176ZM331.105 281.016C331.105 279.608 330.625 278.488 329.665 277.656C328.705 276.824 327.505 276.408 326.065 276.408C324.689 276.408 323.521 276.808 322.561 277.608C321.633 278.408 321.057 279.544 320.833 281.016H331.105ZM342.203 283.56C342.203 280.808 342.715 278.392 343.739 276.312C344.795 274.232 346.219 272.632 348.011 271.512C349.803 270.392 351.803 269.832 354.011 269.832C355.899 269.832 357.547 270.216 358.955 270.984C360.395 271.752 361.499 272.76 362.267 274.008V270.216H370.475V297H362.267V293.208C361.467 294.456 360.347 295.464 358.907 296.232C357.499 297 355.851 297.384 353.963 297.384C351.787 297.384 349.803 296.824 348.011 295.704C346.219 294.552 344.795 292.936 343.739 290.856C342.715 288.744 342.203 286.312 342.203 283.56ZM362.267 283.608C362.267 281.56 361.691 279.944 360.539 278.76C359.419 277.576 358.043 276.984 356.411 276.984C354.779 276.984 353.387 277.576 352.235 278.76C351.115 279.912 350.555 281.512 350.555 283.56C350.555 285.608 351.115 287.24 352.235 288.456C353.387 289.64 354.779 290.232 356.411 290.232C358.043 290.232 359.419 289.64 360.539 288.456C361.691 287.272 362.267 285.656 362.267 283.608ZM384.622 261.48V297H376.414V261.48H384.622Z" fill="#000F43"/>
<path d="M359.231 181.231C359.231 175.576 354.655 171 349 171C343.345 171 338.769 175.576 338.769 181.231V199.769H320.231C314.576 199.769 310 204.345 310 210C310 215.655 314.576 220.231 320.231 220.231H338.769V238.769C338.769 244.424 343.345 249 349 249C354.655 249 359.231 244.424 359.231 238.769V220.231H377.769C383.424 220.231 388 215.655 388 210C388 204.345 383.424 199.769 377.769 199.769H359.231V181.231Z" fill="#000D3A" stroke="#75EEFF" stroke-width="10"/>
</svg>
