<svg width="545" height="352" viewBox="0 0 545 352" fill="none" xmlns="http://www.w3.org/2000/svg">
<rect width="545" height="352" rx="37" fill="#75EEFF"/>
<path d="M304.033 44.0858C300.87 47.9098 294.751 56.705 294.751 67.0297C294.751 80.9351 300.07 86.2539 308.657 94.8405C317.244 103.427 322.563 108.746 336.469 108.746C346.794 108.746 355.59 102.628 359.414 99.4641C360.805 98.3169 361.5 96.6134 361.5 94.8405C361.5 93.0676 360.805 91.3642 359.414 90.2517C355.451 87.0882 346.099 80.9351 333.688 80.9351C322.563 80.9351 319.782 83.7162 319.782 83.7162C319.782 83.7162 322.563 80.9351 322.563 69.8108C322.563 57.4002 316.41 48.0488 313.246 44.0858C312.134 42.6953 310.43 42 308.657 42C306.884 42 305.18 42.6953 304.033 44.0858ZM268.538 89.2783C254.632 89.2783 241.734 95.5705 233.182 106.034L254.215 127.066C256.37 129.222 256.37 132.767 254.215 134.923C252.059 137.078 248.513 137.078 246.358 134.923L227.133 115.699V115.733L184.267 208.135C182.807 211.298 183.468 215.053 185.936 217.556C188.404 220.059 192.159 220.684 195.357 219.224L242.186 197.532L224.073 179.42C221.918 177.265 221.918 173.719 224.073 171.564C226.229 169.408 229.775 169.408 231.93 171.564L252.928 192.526L287.763 176.396C303.894 168.922 314.254 152.756 314.254 134.958C314.219 109.719 293.778 89.2783 268.538 89.2783Z" fill="#000F43"/>
<path d="M111.952 291.048H99.376L97.36 297H88.768L100.96 263.304H110.464L122.656 297H113.968L111.952 291.048ZM109.84 284.712L105.664 272.376L101.536 284.712H109.84ZM124.735 283.56C124.735 280.808 125.247 278.392 126.271 276.312C127.327 274.232 128.751 272.632 130.543 271.512C132.335 270.392 134.335 269.832 136.543 269.832C138.303 269.832 139.903 270.2 141.343 270.936C142.815 271.672 143.967 272.664 144.799 273.912V261.48H153.007V297H144.799V293.16C144.031 294.44 142.927 295.464 141.487 296.232C140.079 297 138.431 297.384 136.543 297.384C134.335 297.384 132.335 296.824 130.543 295.704C128.751 294.552 127.327 292.936 126.271 290.856C125.247 288.744 124.735 286.312 124.735 283.56ZM144.799 283.608C144.799 281.56 144.223 279.944 143.071 278.76C141.951 277.576 140.575 276.984 138.943 276.984C137.311 276.984 135.919 277.576 134.767 278.76C133.647 279.912 133.087 281.512 133.087 283.56C133.087 285.608 133.647 287.24 134.767 288.456C135.919 289.64 137.311 290.232 138.943 290.232C140.575 290.232 141.951 289.64 143.071 288.456C144.223 287.272 144.799 285.656 144.799 283.608ZM157.313 283.56C157.313 280.808 157.825 278.392 158.849 276.312C159.905 274.232 161.329 272.632 163.121 271.512C164.913 270.392 166.913 269.832 169.121 269.832C170.881 269.832 172.481 270.2 173.921 270.936C175.393 271.672 176.545 272.664 177.377 273.912V261.48H185.585V297H177.377V293.16C176.609 294.44 175.505 295.464 174.065 296.232C172.657 297 171.009 297.384 169.121 297.384C166.913 297.384 164.913 296.824 163.121 295.704C161.329 294.552 159.905 292.936 158.849 290.856C157.825 288.744 157.313 286.312 157.313 283.56ZM177.377 283.608C177.377 281.56 176.801 279.944 175.649 278.76C174.529 277.576 173.153 276.984 171.521 276.984C169.889 276.984 168.497 277.576 167.345 278.76C166.225 279.912 165.665 281.512 165.665 283.56C165.665 285.608 166.225 287.24 167.345 288.456C168.497 289.64 169.889 290.232 171.521 290.232C173.153 290.232 174.529 289.64 175.649 288.456C176.801 287.272 177.377 285.656 177.377 283.608ZM209.903 263.304V297H201.695V263.304H209.903ZM232.171 269.928C235.307 269.928 237.803 270.952 239.659 273C241.547 275.016 242.491 277.8 242.491 281.352V297H234.331V282.456C234.331 280.664 233.867 279.272 232.939 278.28C232.011 277.288 230.763 276.792 229.195 276.792C227.627 276.792 226.379 277.288 225.451 278.28C224.523 279.272 224.059 280.664 224.059 282.456V297H215.851V270.216H224.059V273.768C224.891 272.584 226.011 271.656 227.419 270.984C228.827 270.28 230.411 269.928 232.171 269.928ZM258.371 269.832C260.259 269.832 261.907 270.216 263.315 270.984C264.755 271.752 265.859 272.76 266.627 274.008V270.216H274.835V296.952C274.835 299.416 274.339 301.64 273.347 303.624C272.387 305.64 270.899 307.24 268.883 308.424C266.899 309.608 264.419 310.2 261.443 310.2C257.475 310.2 254.259 309.256 251.795 307.368C249.331 305.512 247.923 302.984 247.571 299.784H255.683C255.939 300.808 256.547 301.608 257.507 302.184C258.467 302.792 259.651 303.096 261.059 303.096C262.755 303.096 264.099 302.6 265.091 301.608C266.115 300.648 266.627 299.096 266.627 296.952V293.16C265.827 294.408 264.723 295.432 263.315 296.232C261.907 297 260.259 297.384 258.371 297.384C256.163 297.384 254.163 296.824 252.371 295.704C250.579 294.552 249.155 292.936 248.099 290.856C247.075 288.744 246.563 286.312 246.563 283.56C246.563 280.808 247.075 278.392 248.099 276.312C249.155 274.232 250.579 272.632 252.371 271.512C254.163 270.392 256.163 269.832 258.371 269.832ZM266.627 283.608C266.627 281.56 266.051 279.944 264.899 278.76C263.779 277.576 262.403 276.984 260.771 276.984C259.139 276.984 257.747 277.576 256.595 278.76C255.475 279.912 254.915 281.512 254.915 283.56C254.915 285.608 255.475 287.24 256.595 288.456C257.747 289.64 259.139 290.232 260.771 290.232C262.403 290.232 263.779 289.64 264.899 288.456C266.051 287.272 266.627 285.656 266.627 283.608ZM288.981 274.68C289.941 273.208 291.141 272.056 292.581 271.224C294.021 270.36 295.621 269.928 297.381 269.928V278.616H295.125C293.077 278.616 291.541 279.064 290.517 279.96C289.493 280.824 288.981 282.36 288.981 284.568V297H280.773V270.216H288.981V274.68ZM326.552 283.176C326.552 283.944 326.504 284.744 326.408 285.576H307.832C307.96 287.24 308.488 288.52 309.416 289.416C310.376 290.28 311.544 290.712 312.92 290.712C314.968 290.712 316.392 289.848 317.192 288.12H325.928C325.48 289.88 324.664 291.464 323.48 292.872C322.328 294.28 320.872 295.384 319.112 296.184C317.352 296.984 315.384 297.384 313.208 297.384C310.584 297.384 308.248 296.824 306.2 295.704C304.152 294.584 302.552 292.984 301.4 290.904C300.248 288.824 299.672 286.392 299.672 283.608C299.672 280.824 300.232 278.392 301.352 276.312C302.504 274.232 304.104 272.632 306.152 271.512C308.2 270.392 310.552 269.832 313.208 269.832C315.8 269.832 318.104 270.376 320.12 271.464C322.136 272.552 323.704 274.104 324.824 276.12C325.976 278.136 326.552 280.488 326.552 283.176ZM318.152 281.016C318.152 279.608 317.672 278.488 316.712 277.656C315.752 276.824 314.552 276.408 313.112 276.408C311.736 276.408 310.568 276.808 309.608 277.608C308.68 278.408 308.104 279.544 307.88 281.016H318.152ZM329.25 283.56C329.25 280.808 329.762 278.392 330.786 276.312C331.842 274.232 333.266 272.632 335.058 271.512C336.85 270.392 338.85 269.832 341.058 269.832C342.818 269.832 344.418 270.2 345.858 270.936C347.33 271.672 348.482 272.664 349.314 273.912V261.48H357.522V297H349.314V293.16C348.546 294.44 347.442 295.464 346.002 296.232C344.594 297 342.946 297.384 341.058 297.384C338.85 297.384 336.85 296.824 335.058 295.704C333.266 294.552 331.842 292.936 330.786 290.856C329.762 288.744 329.25 286.312 329.25 283.56ZM349.314 283.608C349.314 281.56 348.738 279.944 347.586 278.76C346.466 277.576 345.09 276.984 343.458 276.984C341.826 276.984 340.434 277.576 339.282 278.76C338.162 279.912 337.602 281.512 337.602 283.56C337.602 285.608 338.162 287.24 339.282 288.456C340.434 289.64 341.826 290.232 343.458 290.232C345.09 290.232 346.466 289.64 347.586 288.456C348.738 287.272 349.314 285.656 349.314 283.608ZM367.588 267.432C366.148 267.432 364.964 267.016 364.036 266.184C363.14 265.32 362.692 264.264 362.692 263.016C362.692 261.736 363.14 260.68 364.036 259.848C364.964 258.984 366.148 258.552 367.588 258.552C368.996 258.552 370.148 258.984 371.044 259.848C371.972 260.68 372.436 261.736 372.436 263.016C372.436 264.264 371.972 265.32 371.044 266.184C370.148 267.016 368.996 267.432 367.588 267.432ZM371.668 270.216V297H363.46V270.216H371.668ZM402.865 283.176C402.865 283.944 402.817 284.744 402.721 285.576H384.145C384.273 287.24 384.801 288.52 385.729 289.416C386.689 290.28 387.857 290.712 389.233 290.712C391.281 290.712 392.705 289.848 393.505 288.12H402.241C401.793 289.88 400.977 291.464 399.793 292.872C398.641 294.28 397.185 295.384 395.425 296.184C393.665 296.984 391.697 297.384 389.521 297.384C386.897 297.384 384.561 296.824 382.513 295.704C380.465 294.584 378.865 292.984 377.713 290.904C376.561 288.824 375.985 286.392 375.985 283.608C375.985 280.824 376.545 278.392 377.665 276.312C378.817 274.232 380.417 272.632 382.465 271.512C384.513 270.392 386.865 269.832 389.521 269.832C392.113 269.832 394.417 270.376 396.433 271.464C398.449 272.552 400.017 274.104 401.137 276.12C402.289 278.136 402.865 280.488 402.865 283.176ZM394.465 281.016C394.465 279.608 393.985 278.488 393.025 277.656C392.065 276.824 390.865 276.408 389.425 276.408C388.049 276.408 386.881 276.808 385.921 277.608C384.993 278.408 384.417 279.544 384.193 281.016H394.465ZM423.515 269.928C426.651 269.928 429.147 270.952 431.003 273C432.891 275.016 433.835 277.8 433.835 281.352V297H425.675V282.456C425.675 280.664 425.211 279.272 424.283 278.28C423.355 277.288 422.107 276.792 420.539 276.792C418.971 276.792 417.723 277.288 416.795 278.28C415.867 279.272 415.403 280.664 415.403 282.456V297H407.195V270.216H415.403V273.768C416.235 272.584 417.355 271.656 418.763 270.984C420.171 270.28 421.755 269.928 423.515 269.928ZM454.467 290.04V297H450.291C447.315 297 444.995 296.28 443.331 294.84C441.667 293.368 440.835 290.984 440.835 287.688V277.032H437.571V270.216H440.835V263.688H449.043V270.216H454.419V277.032H449.043V287.784C449.043 288.584 449.235 289.16 449.619 289.512C450.003 289.864 450.643 290.04 451.539 290.04H454.467Z" fill="#000F43"/>
<path d="M317.231 157.231C317.231 151.576 312.655 147 307 147C301.345 147 296.769 151.576 296.769 157.231V175.769H278.231C272.576 175.769 268 180.345 268 186C268 191.655 272.576 196.231 278.231 196.231H296.769V214.769C296.769 220.424 301.345 225 307 225C312.655 225 317.231 220.424 317.231 214.769V196.231H335.769C341.424 196.231 346 191.655 346 186C346 180.345 341.424 175.769 335.769 175.769H317.231V157.231Z" fill="#000D3A" stroke="#75EEFF" stroke-width="10"/>
</svg>
