<svg width="80" height="80" viewBox="0 0 80 80" fill="none" xmlns="http://www.w3.org/2000/svg">
<rect width="80" height="80" rx="17" fill="#000F43"/>
<path d="M33.22 14.7396C36.4173 10.4007 42.9032 10.4007 46.1005 14.7396L53.2222 24.4039C53.6987 25.0506 54.2699 25.6218 54.9166 26.0983L64.5809 33.22C68.9198 36.4173 68.9198 42.9032 64.5809 46.1005L54.9166 53.2222C54.2699 53.6987 53.6987 54.2699 53.2222 54.9166L46.1005 64.5809C42.9032 68.9198 36.4173 68.9198 33.22 64.5809L26.0983 54.9166C25.6218 54.2699 25.0506 53.6987 24.4039 53.2222L14.7396 46.1005C10.4007 42.9032 10.4007 36.4173 14.7396 33.22L24.4039 26.0983C25.0506 25.6218 25.6218 25.0506 26.0983 24.4039L33.22 14.7396Z" stroke="#75EEFF" stroke-width="5"/>
<circle cx="63.5" cy="64.5" r="2.5" fill="white"/>
</svg>
