<svg width="545" height="352" viewBox="0 0 545 352" fill="none" xmlns="http://www.w3.org/2000/svg">
<rect width="545" height="352" rx="37" fill="#75EEFF"/>
<path d="M329.372 51.9957C333.201 49.8833 338.021 51.2366 340.133 55.0653L341.717 57.9369C348.088 69.3903 348.253 82.923 342.84 94.2443C351.653 103.684 357 116.326 357 130.222C357 136.328 355.977 142.203 354.062 147.649C352.049 153.359 344.655 153.029 341.915 147.616L338.054 139.893C336.7 137.219 333.961 135.503 330.957 135.503H306.828C302.438 135.503 298.906 131.971 298.906 127.581V101.176C298.906 96.7859 295.374 93.2541 290.984 93.2541H285.34C278.309 93.2541 275.438 85.3655 281.775 82.3949C288.575 79.1933 296.167 77.4109 304.188 77.4109C313.529 77.4109 322.276 79.8204 329.868 84.0783C331.683 78.071 331.089 71.4037 327.887 65.6605L326.303 62.7889C324.19 58.9601 325.544 54.1412 329.372 52.0287V51.9957ZM244.509 165.044L275.141 103.816H288.344V130.222C288.344 138.968 295.44 146.065 304.188 146.065H329.339L337.228 161.842C310.888 197.522 268.638 220 222.064 220H202.655C194.569 220 188 213.432 188 205.345C188 198.48 192.786 192.538 199.487 191.053L215.925 187.389C228.336 184.617 238.865 176.431 244.542 165.044H244.509Z" fill="#000F43"/>
<path d="M141.184 263.304V297H132.976V263.304H141.184ZM163.452 269.928C166.588 269.928 169.084 270.952 170.94 273C172.828 275.016 173.772 277.8 173.772 281.352V297H165.612V282.456C165.612 280.664 165.148 279.272 164.22 278.28C163.292 277.288 162.044 276.792 160.476 276.792C158.908 276.792 157.66 277.288 156.732 278.28C155.804 279.272 155.34 280.664 155.34 282.456V297H147.132V270.216H155.34V273.768C156.172 272.584 157.292 271.656 158.7 270.984C160.108 270.28 161.692 269.928 163.452 269.928ZM189.652 269.832C191.54 269.832 193.188 270.216 194.596 270.984C196.036 271.752 197.14 272.76 197.908 274.008V270.216H206.116V296.952C206.116 299.416 205.62 301.64 204.628 303.624C203.668 305.64 202.18 307.24 200.164 308.424C198.18 309.608 195.7 310.2 192.724 310.2C188.756 310.2 185.54 309.256 183.076 307.368C180.612 305.512 179.204 302.984 178.852 299.784H186.964C187.22 300.808 187.828 301.608 188.788 302.184C189.748 302.792 190.932 303.096 192.34 303.096C194.036 303.096 195.38 302.6 196.372 301.608C197.396 300.648 197.908 299.096 197.908 296.952V293.16C197.108 294.408 196.004 295.432 194.596 296.232C193.188 297 191.54 297.384 189.652 297.384C187.444 297.384 185.444 296.824 183.652 295.704C181.86 294.552 180.436 292.936 179.38 290.856C178.356 288.744 177.844 286.312 177.844 283.56C177.844 280.808 178.356 278.392 179.38 276.312C180.436 274.232 181.86 272.632 183.652 271.512C185.444 270.392 187.444 269.832 189.652 269.832ZM197.908 283.608C197.908 281.56 197.332 279.944 196.18 278.76C195.06 277.576 193.684 276.984 192.052 276.984C190.42 276.984 189.028 277.576 187.876 278.76C186.756 279.912 186.196 281.512 186.196 283.56C186.196 285.608 186.756 287.24 187.876 288.456C189.028 289.64 190.42 290.232 192.052 290.232C193.684 290.232 195.06 289.64 196.18 288.456C197.332 287.272 197.908 285.656 197.908 283.608ZM220.262 274.68C221.222 273.208 222.422 272.056 223.862 271.224C225.302 270.36 226.902 269.928 228.662 269.928V278.616H226.406C224.358 278.616 222.822 279.064 221.798 279.96C220.774 280.824 220.262 282.36 220.262 284.568V297H212.054V270.216H220.262V274.68ZM257.833 283.176C257.833 283.944 257.785 284.744 257.689 285.576H239.113C239.241 287.24 239.769 288.52 240.697 289.416C241.657 290.28 242.825 290.712 244.201 290.712C246.249 290.712 247.673 289.848 248.473 288.12H257.209C256.761 289.88 255.945 291.464 254.761 292.872C253.609 294.28 252.153 295.384 250.393 296.184C248.633 296.984 246.665 297.384 244.489 297.384C241.865 297.384 239.529 296.824 237.481 295.704C235.433 294.584 233.833 292.984 232.681 290.904C231.529 288.824 230.953 286.392 230.953 283.608C230.953 280.824 231.513 278.392 232.633 276.312C233.785 274.232 235.385 272.632 237.433 271.512C239.481 270.392 241.833 269.832 244.489 269.832C247.081 269.832 249.385 270.376 251.401 271.464C253.417 272.552 254.985 274.104 256.105 276.12C257.257 278.136 257.833 280.488 257.833 283.176ZM249.433 281.016C249.433 279.608 248.953 278.488 247.993 277.656C247.033 276.824 245.833 276.408 244.393 276.408C243.017 276.408 241.849 276.808 240.889 277.608C239.961 278.408 239.385 279.544 239.161 281.016H249.433ZM260.532 283.56C260.532 280.808 261.044 278.392 262.068 276.312C263.124 274.232 264.548 272.632 266.34 271.512C268.132 270.392 270.132 269.832 272.34 269.832C274.1 269.832 275.7 270.2 277.14 270.936C278.612 271.672 279.764 272.664 280.596 273.912V261.48H288.804V297H280.596V293.16C279.828 294.44 278.724 295.464 277.284 296.232C275.876 297 274.228 297.384 272.34 297.384C270.132 297.384 268.132 296.824 266.34 295.704C264.548 294.552 263.124 292.936 262.068 290.856C261.044 288.744 260.532 286.312 260.532 283.56ZM280.596 283.608C280.596 281.56 280.02 279.944 278.868 278.76C277.748 277.576 276.372 276.984 274.74 276.984C273.108 276.984 271.716 277.576 270.564 278.76C269.444 279.912 268.884 281.512 268.884 283.56C268.884 285.608 269.444 287.24 270.564 288.456C271.716 289.64 273.108 290.232 274.74 290.232C276.372 290.232 277.748 289.64 278.868 288.456C280.02 287.272 280.596 285.656 280.596 283.608ZM298.87 267.432C297.43 267.432 296.246 267.016 295.318 266.184C294.422 265.32 293.974 264.264 293.974 263.016C293.974 261.736 294.422 260.68 295.318 259.848C296.246 258.984 297.43 258.552 298.87 258.552C300.278 258.552 301.43 258.984 302.326 259.848C303.254 260.68 303.718 261.736 303.718 263.016C303.718 264.264 303.254 265.32 302.326 266.184C301.43 267.016 300.278 267.432 298.87 267.432ZM302.95 270.216V297H294.742V270.216H302.95ZM334.146 283.176C334.146 283.944 334.098 284.744 334.002 285.576H315.426C315.554 287.24 316.082 288.52 317.01 289.416C317.97 290.28 319.138 290.712 320.514 290.712C322.562 290.712 323.986 289.848 324.786 288.12H333.522C333.074 289.88 332.258 291.464 331.074 292.872C329.922 294.28 328.466 295.384 326.706 296.184C324.946 296.984 322.978 297.384 320.802 297.384C318.178 297.384 315.842 296.824 313.794 295.704C311.746 294.584 310.146 292.984 308.994 290.904C307.842 288.824 307.266 286.392 307.266 283.608C307.266 280.824 307.826 278.392 308.946 276.312C310.098 274.232 311.698 272.632 313.746 271.512C315.794 270.392 318.146 269.832 320.802 269.832C323.394 269.832 325.698 270.376 327.714 271.464C329.73 272.552 331.298 274.104 332.418 276.12C333.57 278.136 334.146 280.488 334.146 283.176ZM325.746 281.016C325.746 279.608 325.266 278.488 324.306 277.656C323.346 276.824 322.146 276.408 320.706 276.408C319.33 276.408 318.162 276.808 317.202 277.608C316.274 278.408 315.698 279.544 315.474 281.016H325.746ZM354.796 269.928C357.932 269.928 360.428 270.952 362.284 273C364.172 275.016 365.116 277.8 365.116 281.352V297H356.956V282.456C356.956 280.664 356.492 279.272 355.564 278.28C354.636 277.288 353.388 276.792 351.82 276.792C350.252 276.792 349.004 277.288 348.076 278.28C347.148 279.272 346.684 280.664 346.684 282.456V297H338.476V270.216H346.684V273.768C347.516 272.584 348.636 271.656 350.044 270.984C351.452 270.28 353.036 269.928 354.796 269.928ZM385.748 290.04V297H381.572C378.596 297 376.276 296.28 374.612 294.84C372.948 293.368 372.116 290.984 372.116 287.688V277.032H368.852V270.216H372.116V263.688H380.324V270.216H385.7V277.032H380.324V287.784C380.324 288.584 380.516 289.16 380.9 289.512C381.284 289.864 381.924 290.04 382.82 290.04H385.748ZM401.216 297.384C398.88 297.384 396.8 296.984 394.976 296.184C393.152 295.384 391.712 294.296 390.656 292.92C389.6 291.512 389.008 289.944 388.88 288.216H396.992C397.088 289.144 397.52 289.896 398.288 290.472C399.056 291.048 400 291.336 401.12 291.336C402.144 291.336 402.928 291.144 403.472 290.76C404.048 290.344 404.336 289.816 404.336 289.176C404.336 288.408 403.936 287.848 403.136 287.496C402.336 287.112 401.04 286.696 399.248 286.248C397.328 285.8 395.728 285.336 394.448 284.856C393.168 284.344 392.064 283.56 391.136 282.504C390.208 281.416 389.744 279.96 389.744 278.136C389.744 276.6 390.16 275.208 390.992 273.96C391.856 272.68 393.104 271.672 394.736 270.936C396.4 270.2 398.368 269.832 400.64 269.832C404 269.832 406.64 270.664 408.56 272.328C410.512 273.992 411.632 276.2 411.92 278.952H404.336C404.208 278.024 403.792 277.288 403.088 276.744C402.416 276.2 401.52 275.928 400.4 275.928C399.44 275.928 398.704 276.12 398.192 276.504C397.68 276.856 397.424 277.352 397.424 277.992C397.424 278.76 397.824 279.336 398.624 279.72C399.456 280.104 400.736 280.488 402.464 280.872C404.448 281.384 406.064 281.896 407.312 282.408C408.56 282.888 409.648 283.688 410.576 284.808C411.536 285.896 412.032 287.368 412.064 289.224C412.064 290.792 411.616 292.2 410.72 293.448C409.856 294.664 408.592 295.624 406.928 296.328C405.296 297.032 403.392 297.384 401.216 297.384Z" fill="#000F43"/>
</svg>
