<svg width="545" height="352" viewBox="0 0 545 352" fill="none" xmlns="http://www.w3.org/2000/svg">
<rect width="545" height="352" rx="37" fill="#75EEFF"/>
<path d="M244.28 53.0369C236.789 52.5142 230.512 57.6107 228.672 64.3735L224.795 78.8791C224.959 78.8791 225.156 78.8791 225.321 78.8791C283.383 78.8791 330.471 125.696 330.471 183.424C330.471 183.587 330.471 183.783 330.471 183.947L345.06 180.092C351.895 178.295 356.988 172.022 356.463 164.573C352.322 104.852 304.348 57.1533 244.28 53.0369ZM319.89 186.756C319.923 185.646 319.956 184.535 319.956 183.424C319.956 131.446 277.6 89.3336 225.321 89.3336C224.203 89.3336 223.086 89.3663 221.969 89.3989L188.682 213.448C188.189 215.245 188.715 217.172 190.03 218.479C191.344 219.786 193.283 220.309 195.09 219.819L319.89 186.756ZM246.351 120.697C249.139 120.697 251.814 121.799 253.786 123.759C255.758 125.72 256.866 128.379 256.866 131.152C256.866 133.924 255.758 136.583 253.786 138.544C251.814 140.505 249.139 141.606 246.351 141.606C243.562 141.606 240.887 140.505 238.915 138.544C236.943 136.583 235.836 133.924 235.836 131.152C235.836 128.379 236.943 125.72 238.915 123.759C240.887 121.799 243.562 120.697 246.351 120.697ZM267.381 162.515C267.381 159.742 268.489 157.083 270.46 155.123C272.432 153.162 275.107 152.061 277.896 152.061C280.684 152.061 283.359 153.162 285.331 155.123C287.303 157.083 288.411 159.742 288.411 162.515C288.411 165.288 287.303 167.947 285.331 169.908C283.359 171.868 280.684 172.97 277.896 172.97C275.107 172.97 272.432 171.868 270.46 169.908C268.489 167.947 267.381 165.288 267.381 162.515ZM220.063 178.197C220.063 175.424 221.171 172.765 223.143 170.804C225.115 168.844 227.789 167.742 230.578 167.742C233.367 167.742 236.041 168.844 238.013 170.804C239.985 172.765 241.093 175.424 241.093 178.197C241.093 180.97 239.985 183.629 238.013 185.589C236.041 187.55 233.367 188.651 230.578 188.651C227.789 188.651 225.115 187.55 223.143 185.589C221.171 183.629 220.063 180.97 220.063 178.197Z" fill="#000F43"/>
<path d="M239.636 263.304V297H231.428V276.792L223.892 297H217.268L209.684 276.744V297H201.476V263.304H211.172L220.628 286.632L229.988 263.304H239.636ZM270.786 283.176C270.786 283.944 270.739 284.744 270.643 285.576H252.067C252.195 287.24 252.723 288.52 253.651 289.416C254.611 290.28 255.779 290.712 257.155 290.712C259.203 290.712 260.627 289.848 261.427 288.12H270.163C269.715 289.88 268.899 291.464 267.715 292.872C266.563 294.28 265.107 295.384 263.347 296.184C261.587 296.984 259.619 297.384 257.443 297.384C254.819 297.384 252.483 296.824 250.435 295.704C248.387 294.584 246.787 292.984 245.635 290.904C244.483 288.824 243.907 286.392 243.907 283.608C243.907 280.824 244.467 278.392 245.587 276.312C246.739 274.232 248.339 272.632 250.387 271.512C252.435 270.392 254.787 269.832 257.443 269.832C260.035 269.832 262.339 270.376 264.355 271.464C266.371 272.552 267.939 274.104 269.059 276.12C270.211 278.136 270.786 280.488 270.786 283.176ZM262.387 281.016C262.387 279.608 261.907 278.488 260.947 277.656C259.987 276.824 258.787 276.408 257.347 276.408C255.971 276.408 254.803 276.808 253.843 277.608C252.915 278.408 252.339 279.544 252.115 281.016H262.387ZM273.485 283.56C273.485 280.808 273.997 278.392 275.021 276.312C276.077 274.232 277.501 272.632 279.293 271.512C281.085 270.392 283.085 269.832 285.293 269.832C287.181 269.832 288.829 270.216 290.237 270.984C291.677 271.752 292.781 272.76 293.549 274.008V270.216H301.757V297H293.549V293.208C292.749 294.456 291.629 295.464 290.189 296.232C288.781 297 287.133 297.384 285.245 297.384C283.069 297.384 281.085 296.824 279.293 295.704C277.501 294.552 276.077 292.936 275.021 290.856C273.997 288.744 273.485 286.312 273.485 283.56ZM293.549 283.608C293.549 281.56 292.973 279.944 291.821 278.76C290.701 277.576 289.325 276.984 287.693 276.984C286.061 276.984 284.669 277.576 283.517 278.76C282.397 279.912 281.837 281.512 281.837 283.56C281.837 285.608 282.397 287.24 283.517 288.456C284.669 289.64 286.061 290.232 287.693 290.232C289.325 290.232 290.701 289.64 291.821 288.456C292.973 287.272 293.549 285.656 293.549 283.608ZM315.903 261.48V297H307.695V261.48H315.903ZM332.747 297.384C330.411 297.384 328.331 296.984 326.507 296.184C324.683 295.384 323.243 294.296 322.187 292.92C321.131 291.512 320.539 289.944 320.411 288.216H328.523C328.619 289.144 329.051 289.896 329.819 290.472C330.587 291.048 331.531 291.336 332.651 291.336C333.675 291.336 334.459 291.144 335.003 290.76C335.579 290.344 335.867 289.816 335.867 289.176C335.867 288.408 335.467 287.848 334.667 287.496C333.867 287.112 332.571 286.696 330.779 286.248C328.859 285.8 327.259 285.336 325.979 284.856C324.699 284.344 323.595 283.56 322.667 282.504C321.739 281.416 321.275 279.96 321.275 278.136C321.275 276.6 321.691 275.208 322.523 273.96C323.387 272.68 324.635 271.672 326.267 270.936C327.931 270.2 329.899 269.832 332.171 269.832C335.531 269.832 338.171 270.664 340.091 272.328C342.043 273.992 343.163 276.2 343.451 278.952H335.867C335.739 278.024 335.323 277.288 334.619 276.744C333.947 276.2 333.051 275.928 331.931 275.928C330.971 275.928 330.235 276.12 329.723 276.504C329.211 276.856 328.955 277.352 328.955 277.992C328.955 278.76 329.355 279.336 330.155 279.72C330.987 280.104 332.267 280.488 333.995 280.872C335.979 281.384 337.595 281.896 338.843 282.408C340.091 282.888 341.179 283.688 342.107 284.808C343.067 285.896 343.563 287.368 343.595 289.224C343.595 290.792 343.147 292.2 342.251 293.448C341.387 294.664 340.123 295.624 338.459 296.328C336.827 297.032 334.923 297.384 332.747 297.384Z" fill="#000F43"/>
</svg>
