<svg width="545" height="352" viewBox="0 0 545 352" fill="none" xmlns="http://www.w3.org/2000/svg">
<rect width="545" height="352" rx="37" fill="#75EEFF"/>
<path d="M173 87.1429C173 74.9297 182.915 65 195.111 65H349.889C362.085 65 372 74.9297 372 87.1429V197.857C372 210.07 362.085 220 349.889 220H195.111C182.915 220 173 210.07 173 197.857V87.1429ZM217.222 153.571C220.154 153.571 222.966 152.405 225.04 150.329C227.113 148.252 228.278 145.436 228.278 142.5C228.278 139.564 227.113 136.748 225.04 134.671C222.966 132.595 220.154 131.429 217.222 131.429C214.29 131.429 211.478 132.595 209.405 134.671C207.331 136.748 206.167 139.564 206.167 142.5C206.167 145.436 207.331 148.252 209.405 150.329C211.478 152.405 214.29 153.571 217.222 153.571ZM228.278 109.286C228.278 106.349 227.113 103.533 225.04 101.457C222.966 99.3807 220.154 98.2143 217.222 98.2143C214.29 98.2143 211.478 99.3807 209.405 101.457C207.331 103.533 206.167 106.349 206.167 109.286C206.167 112.222 207.331 115.038 209.405 117.114C211.478 119.191 214.29 120.357 217.222 120.357C220.154 120.357 222.966 119.191 225.04 117.114C227.113 115.038 228.278 112.222 228.278 109.286ZM217.222 186.786C220.154 186.786 222.966 185.619 225.04 183.543C227.113 181.467 228.278 178.651 228.278 175.714C228.278 172.778 227.113 169.962 225.04 167.886C222.966 165.809 220.154 164.643 217.222 164.643C214.29 164.643 211.478 165.809 209.405 167.886C207.331 169.962 206.167 172.778 206.167 175.714C206.167 178.651 207.331 181.467 209.405 183.543C211.478 185.619 214.29 186.786 217.222 186.786ZM250.389 100.982C245.794 100.982 242.097 104.684 242.097 109.286C242.097 113.887 245.794 117.589 250.389 117.589H327.778C332.373 117.589 336.069 113.887 336.069 109.286C336.069 104.684 332.373 100.982 327.778 100.982H250.389ZM250.389 134.196C245.794 134.196 242.097 137.898 242.097 142.5C242.097 147.102 245.794 150.804 250.389 150.804H327.778C332.373 150.804 336.069 147.102 336.069 142.5C336.069 137.898 332.373 134.196 327.778 134.196H250.389ZM250.389 167.411C245.794 167.411 242.097 171.113 242.097 175.714C242.097 180.316 245.794 184.018 250.389 184.018H327.778C332.373 184.018 336.069 180.316 336.069 175.714C336.069 171.113 332.373 167.411 327.778 167.411H250.389Z" fill="#000D3A"/>
<path d="M104.668 297.336C102.204 297.336 99.996 296.936 98.044 296.136C96.092 295.336 94.524 294.152 93.34 292.584C92.188 291.016 91.58 289.128 91.516 286.92H100.252C100.38 288.168 100.812 289.128 101.548 289.8C102.284 290.44 103.244 290.76 104.428 290.76C105.644 290.76 106.604 290.488 107.308 289.944C108.012 289.368 108.364 288.584 108.364 287.592C108.364 286.76 108.076 286.072 107.5 285.528C106.956 284.984 106.268 284.536 105.436 284.184C104.636 283.832 103.484 283.432 101.98 282.984C99.804 282.312 98.028 281.64 96.652 280.968C95.276 280.296 94.092 279.304 93.1 277.992C92.108 276.68 91.612 274.968 91.612 272.856C91.612 269.72 92.748 267.272 95.02 265.512C97.292 263.72 100.252 262.824 103.9 262.824C107.612 262.824 110.604 263.72 112.876 265.512C115.148 267.272 116.364 269.736 116.524 272.904H107.644C107.58 271.816 107.18 270.968 106.444 270.36C105.708 269.72 104.764 269.4 103.612 269.4C102.62 269.4 101.82 269.672 101.212 270.216C100.604 270.728 100.3 271.48 100.3 272.472C100.3 273.56 100.812 274.408 101.836 275.016C102.86 275.624 104.46 276.28 106.636 276.984C108.812 277.72 110.572 278.424 111.916 279.096C113.292 279.768 114.476 280.744 115.468 282.024C116.46 283.304 116.956 284.952 116.956 286.968C116.956 288.888 116.46 290.632 115.468 292.2C114.508 293.768 113.1 295.016 111.244 295.944C109.388 296.872 107.196 297.336 104.668 297.336ZM138.471 269.928C141.543 269.928 144.007 270.952 145.863 273C147.719 275.016 148.647 277.8 148.647 281.352V297H140.487V282.456C140.487 280.664 140.023 279.272 139.095 278.28C138.167 277.288 136.919 276.792 135.351 276.792C133.783 276.792 132.535 277.288 131.607 278.28C130.679 279.272 130.215 280.664 130.215 282.456V297H122.007V261.48H130.215V273.816C131.047 272.632 132.183 271.688 133.623 270.984C135.063 270.28 136.679 269.928 138.471 269.928ZM166.543 297.384C163.919 297.384 161.551 296.824 159.439 295.704C157.359 294.584 155.711 292.984 154.495 290.904C153.311 288.824 152.719 286.392 152.719 283.608C152.719 280.856 153.327 278.44 154.543 276.36C155.759 274.248 157.423 272.632 159.535 271.512C161.647 270.392 164.015 269.832 166.639 269.832C169.263 269.832 171.631 270.392 173.743 271.512C175.855 272.632 177.519 274.248 178.735 276.36C179.951 278.44 180.559 280.856 180.559 283.608C180.559 286.36 179.935 288.792 178.687 290.904C177.471 292.984 175.791 294.584 173.647 295.704C171.535 296.824 169.167 297.384 166.543 297.384ZM166.543 290.28C168.111 290.28 169.439 289.704 170.527 288.552C171.647 287.4 172.207 285.752 172.207 283.608C172.207 281.464 171.663 279.816 170.575 278.664C169.519 277.512 168.207 276.936 166.639 276.936C165.039 276.936 163.711 277.512 162.655 278.664C161.599 279.784 161.071 281.432 161.071 283.608C161.071 285.752 161.583 287.4 162.607 288.552C163.663 289.704 164.975 290.28 166.543 290.28ZM193.122 274.008C193.922 272.76 195.026 271.752 196.434 270.984C197.842 270.216 199.49 269.832 201.378 269.832C203.586 269.832 205.586 270.392 207.378 271.512C209.17 272.632 210.578 274.232 211.602 276.312C212.658 278.392 213.186 280.808 213.186 283.56C213.186 286.312 212.658 288.744 211.602 290.856C210.578 292.936 209.17 294.552 207.378 295.704C205.586 296.824 203.586 297.384 201.378 297.384C199.522 297.384 197.874 297 196.434 296.232C195.026 295.464 193.922 294.472 193.122 293.256V309.768H184.914V270.216H193.122V274.008ZM204.834 283.56C204.834 281.512 204.258 279.912 203.106 278.76C201.986 277.576 200.594 276.984 198.93 276.984C197.298 276.984 195.906 277.576 194.754 278.76C193.634 279.944 193.074 281.56 193.074 283.608C193.074 285.656 193.634 287.272 194.754 288.456C195.906 289.64 197.298 290.232 198.93 290.232C200.562 290.232 201.954 289.64 203.106 288.456C204.258 287.24 204.834 285.608 204.834 283.56ZM225.7 274.008C226.5 272.76 227.604 271.752 229.012 270.984C230.42 270.216 232.068 269.832 233.956 269.832C236.164 269.832 238.164 270.392 239.956 271.512C241.748 272.632 243.156 274.232 244.18 276.312C245.236 278.392 245.764 280.808 245.764 283.56C245.764 286.312 245.236 288.744 244.18 290.856C243.156 292.936 241.748 294.552 239.956 295.704C238.164 296.824 236.164 297.384 233.956 297.384C232.1 297.384 230.452 297 229.012 296.232C227.604 295.464 226.5 294.472 225.7 293.256V309.768H217.492V270.216H225.7V274.008ZM237.412 283.56C237.412 281.512 236.836 279.912 235.684 278.76C234.564 277.576 233.172 276.984 231.508 276.984C229.876 276.984 228.484 277.576 227.332 278.76C226.212 279.944 225.652 281.56 225.652 283.608C225.652 285.656 226.212 287.272 227.332 288.456C228.484 289.64 229.876 290.232 231.508 290.232C233.14 290.232 234.532 289.64 235.684 288.456C236.836 287.24 237.412 285.608 237.412 283.56ZM254.198 267.432C252.758 267.432 251.574 267.016 250.646 266.184C249.75 265.32 249.302 264.264 249.302 263.016C249.302 261.736 249.75 260.68 250.646 259.848C251.574 258.984 252.758 258.552 254.198 258.552C255.606 258.552 256.758 258.984 257.654 259.848C258.582 260.68 259.046 261.736 259.046 263.016C259.046 264.264 258.582 265.32 257.654 266.184C256.758 267.016 255.606 267.432 254.198 267.432ZM258.278 270.216V297H250.07V270.216H258.278ZM280.546 269.928C283.682 269.928 286.178 270.952 288.034 273C289.922 275.016 290.866 277.8 290.866 281.352V297H282.706V282.456C282.706 280.664 282.242 279.272 281.314 278.28C280.386 277.288 279.138 276.792 277.57 276.792C276.002 276.792 274.754 277.288 273.826 278.28C272.898 279.272 272.434 280.664 272.434 282.456V297H264.226V270.216H272.434V273.768C273.266 272.584 274.386 271.656 275.794 270.984C277.202 270.28 278.786 269.928 280.546 269.928ZM306.746 269.832C308.634 269.832 310.282 270.216 311.69 270.984C313.13 271.752 314.234 272.76 315.002 274.008V270.216H323.21V296.952C323.21 299.416 322.714 301.64 321.722 303.624C320.762 305.64 319.274 307.24 317.258 308.424C315.274 309.608 312.794 310.2 309.818 310.2C305.85 310.2 302.634 309.256 300.17 307.368C297.706 305.512 296.298 302.984 295.946 299.784H304.058C304.314 300.808 304.922 301.608 305.882 302.184C306.842 302.792 308.026 303.096 309.434 303.096C311.13 303.096 312.474 302.6 313.466 301.608C314.49 300.648 315.002 299.096 315.002 296.952V293.16C314.202 294.408 313.098 295.432 311.69 296.232C310.282 297 308.634 297.384 306.746 297.384C304.538 297.384 302.538 296.824 300.746 295.704C298.954 294.552 297.53 292.936 296.474 290.856C295.45 288.744 294.938 286.312 294.938 283.56C294.938 280.808 295.45 278.392 296.474 276.312C297.53 274.232 298.954 272.632 300.746 271.512C302.538 270.392 304.538 269.832 306.746 269.832ZM315.002 283.608C315.002 281.56 314.426 279.944 313.274 278.76C312.154 277.576 310.778 276.984 309.146 276.984C307.514 276.984 306.122 277.576 304.97 278.76C303.85 279.912 303.29 281.512 303.29 283.56C303.29 285.608 303.85 287.24 304.97 288.456C306.122 289.64 307.514 290.232 309.146 290.232C310.778 290.232 312.154 289.64 313.274 288.456C314.426 287.272 315.002 285.656 315.002 283.608ZM349.788 276.744V283.56H328.668V276.744H349.788ZM365.2 261.48V297H356.992V261.48H365.2ZM375.276 267.432C373.836 267.432 372.652 267.016 371.724 266.184C370.828 265.32 370.38 264.264 370.38 263.016C370.38 261.736 370.828 260.68 371.724 259.848C372.652 258.984 373.836 258.552 375.276 258.552C376.684 258.552 377.836 258.984 378.732 259.848C379.66 260.68 380.124 261.736 380.124 263.016C380.124 264.264 379.66 265.32 378.732 266.184C377.836 267.016 376.684 267.432 375.276 267.432ZM379.356 270.216V297H371.148V270.216H379.356ZM396.2 297.384C393.864 297.384 391.784 296.984 389.96 296.184C388.136 295.384 386.696 294.296 385.64 292.92C384.584 291.512 383.992 289.944 383.864 288.216H391.976C392.072 289.144 392.504 289.896 393.272 290.472C394.04 291.048 394.984 291.336 396.104 291.336C397.128 291.336 397.912 291.144 398.456 290.76C399.032 290.344 399.32 289.816 399.32 289.176C399.32 288.408 398.92 287.848 398.12 287.496C397.32 287.112 396.024 286.696 394.232 286.248C392.312 285.8 390.712 285.336 389.432 284.856C388.152 284.344 387.048 283.56 386.12 282.504C385.192 281.416 384.728 279.96 384.728 278.136C384.728 276.6 385.144 275.208 385.976 273.96C386.84 272.68 388.088 271.672 389.72 270.936C391.384 270.2 393.352 269.832 395.624 269.832C398.984 269.832 401.624 270.664 403.544 272.328C405.496 273.992 406.616 276.2 406.904 278.952H399.32C399.192 278.024 398.776 277.288 398.072 276.744C397.4 276.2 396.504 275.928 395.384 275.928C394.424 275.928 393.688 276.12 393.176 276.504C392.664 276.856 392.408 277.352 392.408 277.992C392.408 278.76 392.808 279.336 393.608 279.72C394.44 280.104 395.72 280.488 397.448 280.872C399.432 281.384 401.048 281.896 402.296 282.408C403.544 282.888 404.632 283.688 405.56 284.808C406.52 285.896 407.016 287.368 407.048 289.224C407.048 290.792 406.6 292.2 405.704 293.448C404.84 294.664 403.576 295.624 401.912 296.328C400.28 297.032 398.376 297.384 396.2 297.384ZM426.998 290.04V297H422.822C419.846 297 417.526 296.28 415.862 294.84C414.198 293.368 413.366 290.984 413.366 287.688V277.032H410.102V270.216H413.366V263.688H421.574V270.216H426.95V277.032H421.574V287.784C421.574 288.584 421.766 289.16 422.15 289.512C422.534 289.864 423.174 290.04 424.07 290.04H426.998ZM442.466 297.384C440.13 297.384 438.05 296.984 436.226 296.184C434.402 295.384 432.962 294.296 431.906 292.92C430.85 291.512 430.258 289.944 430.13 288.216H438.242C438.338 289.144 438.77 289.896 439.538 290.472C440.306 291.048 441.25 291.336 442.37 291.336C443.394 291.336 444.178 291.144 444.722 290.76C445.298 290.344 445.586 289.816 445.586 289.176C445.586 288.408 445.186 287.848 444.386 287.496C443.586 287.112 442.29 286.696 440.498 286.248C438.578 285.8 436.978 285.336 435.698 284.856C434.418 284.344 433.314 283.56 432.386 282.504C431.458 281.416 430.994 279.96 430.994 278.136C430.994 276.6 431.41 275.208 432.242 273.96C433.106 272.68 434.354 271.672 435.986 270.936C437.65 270.2 439.618 269.832 441.89 269.832C445.25 269.832 447.89 270.664 449.81 272.328C451.762 273.992 452.882 276.2 453.17 278.952H445.586C445.458 278.024 445.042 277.288 444.338 276.744C443.666 276.2 442.77 275.928 441.65 275.928C440.69 275.928 439.954 276.12 439.442 276.504C438.93 276.856 438.674 277.352 438.674 277.992C438.674 278.76 439.074 279.336 439.874 279.72C440.706 280.104 441.986 280.488 443.714 280.872C445.698 281.384 447.314 281.896 448.562 282.408C449.81 282.888 450.898 283.688 451.826 284.808C452.786 285.896 453.282 287.368 453.314 289.224C453.314 290.792 452.866 292.2 451.97 293.448C451.106 294.664 449.842 295.624 448.178 296.328C446.546 297.032 444.642 297.384 442.466 297.384Z" fill="#000F43"/>
</svg>
